<svg width="600" height="800" xmlns="http://www.w3.org/2000/svg">
  <defs>
    <style>
      .header { font-family: Arial, sans-serif; font-size: 18px; font-weight: bold; fill: #2d4a22; }
      .subheader { font-family: Arial, sans-serif; font-size: 14px; fill: #4a5568; }
      .title { font-family: Arial, sans-serif; font-size: 16px; font-weight: bold; fill: #2d4a22; }
      .content { font-family: Arial, sans-serif; font-size: 12px; fill: #1a202c; }
      .medicine { font-family: Arial, sans-serif; font-size: 11px; fill: #2d3748; }
      .border { stroke: #2d4a22; stroke-width: 2; fill: none; }
    </style>
  </defs>
  
  <rect width="600" height="800" fill="#fefefe" />
  <rect x="20" y="20" width="560" height="760" class="border" />
  
  <text x="300" y="60" text-anchor="middle" class="header">Dr. P. Murali Krishna</text>
  <text x="300" y="80" text-anchor="middle" class="subheader">BAMS, MD (Ayurveda)</text>
  <text x="300" y="100" text-anchor="middle" class="subheader">Reg. No: AP-AYU-12345</text>
  
  <text x="50" y="130" class="subheader">Krishna Ayurvedic Clinic</text>
  <text x="50" y="150" class="subheader">123 Main Street, Hyderabad - 500001</text>
  <text x="50" y="170" class="subheader">Ph: +91 9876543210</text>
  <text x="450" y="150" class="subheader">Date: 27/12/2024</text>
  
  <line x1="50" y1="190" x2="550" y2="190" stroke="#2d4a22" stroke-width="1"/>
  <text x="50" y="220" class="title">Patient Details:</text>
  <text x="50" y="245" class="content">Name: Suresh Kumar</text>
  <text x="300" y="245" class="content">Age: 38 Years</text>
  <text x="50" y="265" class="content">Gender: Male</text>
  <text x="300" y="265" class="content">Patient ID: DR.P.MURALI7</text>
  
  <line x1="50" y1="285" x2="550" y2="285" stroke="#2d4a22" stroke-width="1"/>
  <text x="50" y="315" class="title">Diagnosis:</text>
  <text x="50" y="340" class="content">Amlapitta (Hyperacidity/GERD)</text>
  <text x="50" y="360" class="content">Pitta Dosha Aggravation</text>
  
  <line x1="50" y1="380" x2="550" y2="380" stroke="#2d4a22" stroke-width="1"/>
  <text x="50" y="410" class="title">Prescription:</text>
  
  <text x="50" y="440" class="medicine">1. Avipattikar Churna - 1 tsp with water before meals</text>
  <text x="50" y="460" class="medicine">2. Sutshekhar Rasa - 1 tablet twice daily with honey</text>
  <text x="50" y="480" class="medicine">3. Kamadudha Rasa - 250mg twice daily after meals</text>
  <text x="50" y="500" class="medicine">4. Coconut water - 200ml twice daily</text>
  
  <line x1="50" y1="520" x2="550" y2="520" stroke="#2d4a22" stroke-width="1"/>
  <text x="50" y="550" class="title">Lifestyle Recommendations:</text>
  <text x="50" y="575" class="content">• Avoid spicy, oily, and fried foods</text>
  <text x="50" y="595" class="content">• Eat fresh fruits and vegetables</text>
  <text x="50" y="615" class="content">• Practice stress management techniques</text>
  <text x="50" y="635" class="content">• Maintain regular meal timings</text>
  
  <line x1="50" y1="655" x2="550" y2="655" stroke="#2d4a22" stroke-width="1"/>
  <text x="50" y="685" class="title">Follow-up: After 14 days</text>
  
  <text x="400" y="750" class="content">Dr. P. Murali Krishna</text>
  <text x="400" y="770" class="content">BAMS, MD (Ayurveda)</text>
</svg>